<svg id="Layer_1" data-name="Layer 1" xmlns="http://www.w3.org/2000/svg" viewBox="0 0 460 120"><title>Logo</title><path d="M21.37,71.37V62.23L10.46,50.43h4.79l8.35,9.09,8-9.09h4.64L25.33,62.23v9.14Z"/><path d="M44.11,65.94a2.37,2.37,0,0,1,1.21.2q.27.2.27,1.14v2.82c0,.59-.08,1-.25,1.09a2.34,2.34,0,0,1-1.23.2h-3q-.64,0-.81-.25a2,2,0,0,1-.17-1V67.27q0-.94.27-1.14a2.37,2.37,0,0,1,1.21-.2Z"/><path d="M68.18,54.33l.1,2.91V71.37H65V50.43h3.26L78.7,64l9.58-13.58h3.65V71.37H88.28V57.25a16.54,16.54,0,0,1,.25-2.91,11.55,11.55,0,0,1-1.38,2.91L79.09,68.06h-1L69.71,57.34A9.57,9.57,0,0,1,68.18,54.33Z"/><path d="M97.71,71.37l12.1-20.94h3.61l12.4,20.94h-4.3l-2.72-4.89H104.33l-2.67,4.89Zm8.3-7.9h11.11l-5.58-10Z"/><path d="M131.55,71.37V50.43h16.88q4.41,0,4.41,4.05v4.69q0,4-4.41,4h-2.77l9.24,8.2h-5.29l-8.36-8.2H135.5v8.2Zm15.11-17.83H135.5v6.72h11.16q1.58,0,2-.73a2.93,2.93,0,0,0,.25-1.37v-2.5Q148.88,53.54,146.66,53.54Z"/><path d="M161.28,71.37V50.43h4v9l13.24-9h5.48L168.49,60.56l17.19,10.82h-6.47l-14-9.38v9.38Z"/><path d="M205,71.37V50.48h4v8.4h16.69v-8.4h4V71.37h-4V62H208.92v9.34Z"/><path d="M238.21,55.42q0-2.86,1.09-3.93t4.05-1.06h15.11q3,0,4.05,1.06t1.09,3.93v11q0,2.87-1.09,3.9t-4.05,1H243.35q-3,0-4.08-1t-1.06-3.93Zm4,12.84h17.48V53.54H242.16Z"/><path d="M275.6,54.63a23.26,23.26,0,0,1,.3,3.75v13h-3.66V50.43h3l15.36,13.68A16.09,16.09,0,0,1,293.13,67a21.49,21.49,0,0,1-.35-3.9V50.43h3.65V71.37h-2.72L278.07,57.49A12.21,12.21,0,0,1,275.6,54.63Z"/><path d="M325.58,53.54H309V68.26h16.55V62.53H317V59.67h12.5v6.77q0,2.87-1.09,3.9t-4.05,1H310.22q-3,0-4.07-1t-1.06-3.9v-11q0-2.86,1.09-3.93t4-1.06h14.18a6.07,6.07,0,0,1,4,1q1.16,1,1.16,3.68v.59l-3.95.69Z"/><path d="M343.36,65.94a2.37,2.37,0,0,1,1.21.2q.27.2.27,1.14V71l-3.46,5.19h-2.17l2.91-5.33h-1.68q-1,0-1-1.33V67.27c0-.63.08-1,.25-1.14a2.36,2.36,0,0,1,1.23-.2Z"/><path d="M368.08,54.33l.1,2.91V71.37h-3.26V50.43h3.26L378.61,64l9.58-13.58h3.66V71.37h-3.66V57.25a16.61,16.61,0,0,1,.25-2.91,11.56,11.56,0,0,1-1.38,2.91L379,68.06h-1l-8.35-10.72A9.54,9.54,0,0,1,368.08,54.33Z"/><path d="M404.68,65.94a2.38,2.38,0,0,1,1.21.2c.18.13.27.51.27,1.14v2.82c0,.59-.08,1-.25,1.09a2.35,2.35,0,0,1-1.24.2h-3q-.64,0-.81-.25a2,2,0,0,1-.17-1V67.27q0-.94.27-1.14a2.37,2.37,0,0,1,1.21-.2Z"/><path d="M427.14,50.43q5.83,0,8.4,1.63,4.54,2.87,4.54,8.79,0,10.52-12.94,10.52H415.09V50.43Zm-.45,3.11H419V68.26h7.65q4.94,0,7.19-1.64t2.25-5.8q0-4-2.37-5.7Q431.58,53.54,426.69,53.54Z"/><path d="M448.52,65.94a2.37,2.37,0,0,1,1.21.2q.27.2.27,1.14v2.82c0,.59-.08,1-.25,1.09a2.33,2.33,0,0,1-1.23.2h-3c-.43,0-.7-.08-.82-.25a2.05,2.05,0,0,1-.17-1V67.27q0-.94.27-1.14a2.38,2.38,0,0,1,1.21-.2Z"/></svg>